<svg width="46" height="46" viewBox="0 0 46 46" fill="none" xmlns="http://www.w3.org/2000/svg">
<circle cx="23" cy="23" r="23" fill="#FAE64D"/>
<path d="M22.9914 13C16.3533 13 11 17.2471 11 22.4031C11 25.7498 13.227 28.6803 16.5675 30.3537L15.4368 34.5414C15.4155 34.6041 15.4122 34.6715 15.4274 34.736C15.4425 34.8005 15.4754 34.8596 15.5225 34.9066C15.5911 34.9666 15.6794 34.9998 15.7709 35C15.8467 34.994 15.9187 34.9642 15.9764 34.9151L20.8415 31.6618C21.5597 31.7601 22.2836 31.8111 23.0086 31.8147C29.6381 31.8147 35 27.5676 35 22.4031C35 17.2386 29.621 13 22.9914 13Z" fill="#392020"/>
</svg>
