<svg width="240" height="152" viewBox="0 0 240 152" fill="none" xmlns="http://www.w3.org/2000/svg">
<g clip-path="url(#clip0_1873_1137)">
<path d="M102.431 50.9435C101.175 49.6478 99.2909 49 96.7791 49H76.4966C73.9848 49 71.9883 49.6397 70.507 50.9192C69.0257 52.1987 68.1723 54.0531 67.9469 56.4825L67.4156 62.1673C67.2224 64.5643 67.7537 66.4106 69.0096 67.7063C70.2655 69.0019 72.1493 69.6498 74.6611 69.6498H94.9436C97.4554 69.6498 99.4519 69.01 100.933 67.7306C102.415 66.4511 103.268 64.5967 103.493 62.1673L104.025 56.4825C104.218 54.0855 103.687 52.2392 102.431 50.9435V50.9435ZM94.4606 58.0859L94.2191 60.6125C94.1225 61.5194 93.8407 62.1754 93.3738 62.5803C92.9068 62.9852 92.2064 63.1876 91.2726 63.1876H79.4914C78.5575 63.1876 77.8974 62.969 77.511 62.5317C77.1246 62.0944 76.9474 61.4385 76.9796 60.5639L77.2212 58.0373C77.3178 57.1303 77.5995 56.4744 78.0665 56.0695C78.5334 55.6646 79.2338 55.4622 80.1677 55.4622H91.9488C92.8827 55.4622 93.5428 55.6808 93.9293 56.1181C94.3157 56.5554 94.4928 57.2113 94.4606 58.0859V58.0859Z" fill="#3E00FF"/>
<path d="M133.347 62.8022H122.672L119.388 74.0746L118.035 62.8022H109.582L105.869 77.181H89.1516L89.683 71.0589H80.0223L79.5393 77.181H65.5796L65 83.9347H104.126L104.124 83.9379H111.563L114.219 73.8802L115.427 83.9379H121.61L124.556 73.8802L125.474 83.9379H132.768L131.029 65.1345L133.347 62.8022Z" fill="#3E00FF"/>
<path d="M144.216 69.8475L144.554 65.6204L144.799 62.4136H135.618L133.734 84.0837H142.96L143.637 76.0667H153.011L157 69.8475H144.216Z" fill="#3E00FF"/>
<path d="M106.539 85.4927L106.008 91.7119H132.897L132.655 93.0238L131.721 99.0001L141.739 98.9822L142.858 85.4927H106.539Z" fill="#3E00FF"/>
</g>
<path d="M21.6106 27.28V22.48C29.2106 21.52 34.1306 17.36 34.1306 11.68C34.1306 5.2 27.6906 0.680001 18.1706 0.680001C8.65063 0.680001 2.21063 5.2 2.21063 11.68C2.21063 17.36 7.13063 21.52 14.7306 22.48V27.28H0.890625V33.6H35.4506V27.28H21.6106ZM9.37063 11.68C9.37063 8.72 12.9706 6.76 18.1706 6.76C23.3706 6.76 26.9706 8.72 26.9706 11.68C26.9706 14.6 23.3706 16.6 18.1706 16.6C12.9706 16.6 9.37063 14.6 9.37063 11.68Z" fill="#3E00FF"/>
<path d="M65.6072 0.639999V34.8H72.3672V0.639999H65.6072ZM59.8872 7.56H62.5272V1.44H40.2872V7.56H42.9272V27.08H40.0472V33.2H54.6872C57.9672 33.2 61.7272 32.6 63.8072 31.56V25.52C62.7672 26 61.4072 26.36 59.8872 26.64V7.56ZM49.5672 7.56H53.2472V27.08H49.5672V7.56Z" fill="#3E00FF"/>
<path d="M94.8838 13.64L108.884 22.6L112.444 17.12L97.8838 8.36C98.8038 6.24 99.4437 4 99.7637 1.6L92.8838 0.52C91.6438 9.68 85.3238 16 78.5238 16.04V22.44C85.0438 22.4 90.9238 19 94.8838 13.64ZM77.8438 33.6H112.404V27.28H77.8438V33.6Z" fill="#3E00FF"/>
<path d="M153.091 17.2H160.091V1.04H129.451V7.32H153.091V17.2ZM162.091 19.24H127.531V25.52H141.091V35.6H148.091V25.52H162.091V19.24Z" fill="#3E00FF"/>
<path d="M189.048 2.4H180.808V0H173.928V2.4H165.688V7.08H189.048V2.4ZM198.088 6.32V0.639999H191.328V18.36H198.088V12.44H202.088V6.32H198.088ZM177.368 18.68C183.008 18.68 187.728 17 187.728 13.28C187.728 9.56 183.008 7.88 177.368 7.88C171.728 7.88 167.008 9.56 167.008 13.28C167.008 17 171.728 18.68 177.368 18.68ZM177.368 12.16C179.808 12.16 181.448 12.52 181.448 13.28C181.448 14.04 179.808 14.4 177.368 14.4C174.928 14.4 173.288 14.04 173.288 13.28C173.288 12.52 174.928 12.16 177.368 12.16ZM174.608 29.12H198.088V19.56H167.888V23.92H191.448V25.16H167.968V34.8H198.448V30.4H174.608V29.12Z" fill="#3E00FF"/>
<path d="M230.684 14.12H232.844V25.96H238.684V0.639999H232.844V7.8H230.684V0.799999H224.924V25.36H230.684V14.12ZM213.244 20.52V15.56C212.564 15.8 211.724 15.92 210.884 15.92H210.564V6.24H213.164V1.04H204.804V21.12H208.764C210.244 21.12 212.204 20.88 213.244 20.52ZM223.844 20.36V15.36C222.924 15.76 221.604 15.92 220.444 15.92H220.044V6.24H223.124V1.04H214.324V21.12H218.884C220.724 21.12 222.644 20.84 223.844 20.36ZM213.724 28.72V23.44H206.844V34.8H239.084V28.72H213.724Z" fill="#3E00FF"/>
<path d="M183.288 58.92C173.688 58.92 167.408 63.48 167.408 70.2C167.408 76.92 173.688 81.48 183.288 81.48C192.888 81.48 199.168 76.92 199.168 70.2C199.168 63.48 192.888 58.92 183.288 58.92ZM183.288 65.04C188.448 65.04 192.008 67.12 192.008 70.2C192.008 73.28 188.448 75.36 183.288 75.36C178.128 75.36 174.568 73.28 174.568 70.2C174.568 67.12 178.128 65.04 183.288 65.04ZM200.568 85.28H166.008V91.6H200.568V85.28Z" fill="#3E00FF"/>
<path d="M225.204 85.44V81.6H237.564V75.68H213.084V73.32H237.164V59.44H206.324V65.36H230.484V67.68H206.404V81.6H218.324V85.44H204.484V91.6H239.044V85.44H225.204Z" fill="#3E00FF"/>
<path d="M202.088 129.12H198.088V116.64H191.328V150.8H198.088V135.68H202.088V129.12ZM166.968 123.6H179.408V126.68C179.408 136.68 175.168 142.72 166.968 142.8V149.2C178.808 149.2 186.288 140.56 186.288 126.68V117.44H166.968V123.6Z" fill="#3E00FF"/>
<path d="M213.324 116.44H206.564V129.16H237.364V124H213.324V116.44ZM239.044 131.08H204.484V136.28H239.044V131.08ZM221.764 137.76C212.564 137.76 206.164 139.56 206.164 144.48C206.164 149.4 212.564 151.2 221.764 151.2C230.964 151.2 237.364 149.4 237.364 144.48C237.364 139.56 230.964 137.76 221.764 137.76ZM221.764 142.8C226.724 142.8 230.164 143.28 230.164 144.48C230.164 145.72 226.724 146.16 221.764 146.16C216.804 146.16 213.364 145.72 213.364 144.48C213.364 143.28 216.804 142.8 221.764 142.8Z" fill="#3E00FF"/>
<g clip-path="url(#clip1_1873_1137)">
<path d="M114.119 125.596L115.329 135.768H121.527L124.48 125.596L125.4 135.768H132.711L130.968 116.752L133.292 114.393H122.592L119.3 125.793L117.944 114.393H109.471L104 135.768H111.456L114.119 125.596Z" fill="#3E00FF"/>
<path d="M144.186 121.518L144.525 117.243L144.77 114H135.568L133.68 135.915H142.927L143.605 127.807H153.163L157 121.518H144.186Z" fill="#3E00FF"/>
<path d="M106.905 137.34L106.372 143.629H133.163L132.92 144.956L131.662 151L141.703 150.982L142.825 137.34H106.905Z" fill="#3E00FF"/>
</g>
<defs>
<clipPath id="clip0_1873_1137">
<rect width="92" height="50" fill="white" transform="translate(65 49)"/>
</clipPath>
<clipPath id="clip1_1873_1137">
<rect width="53" height="37" fill="white" transform="translate(104 114)"/>
</clipPath>
</defs>
</svg>
