<svg width="240" height="154" viewBox="0 0 240 154" fill="none" xmlns="http://www.w3.org/2000/svg">
<path d="M21.6106 27.28V22.48C29.2106 21.52 34.1306 17.36 34.1306 11.68C34.1306 5.2 27.6906 0.680001 18.1706 0.680001C8.65063 0.680001 2.21063 5.2 2.21063 11.68C2.21063 17.36 7.13063 21.52 14.7306 22.48V27.28H0.890625V33.6H35.4506V27.28H21.6106ZM9.37063 11.68C9.37063 8.72 12.9706 6.76 18.1706 6.76C23.3706 6.76 26.9706 8.72 26.9706 11.68C26.9706 14.6 23.3706 16.6 18.1706 16.6C12.9706 16.6 9.37063 14.6 9.37063 11.68Z" fill="white"/>
<path d="M65.6072 0.639999V34.8H72.3672V0.639999H65.6072ZM59.8872 7.56H62.5272V1.44H40.2872V7.56H42.9272V27.08H40.0472V33.2H54.6872C57.9672 33.2 61.7272 32.6 63.8072 31.56V25.52C62.7672 26 61.4072 26.36 59.8872 26.64V7.56ZM49.5672 7.56H53.2472V27.08H49.5672V7.56Z" fill="white"/>
<path d="M94.8838 13.64L108.884 22.6L112.444 17.12L97.8838 8.36C98.8037 6.24 99.4437 4 99.7637 1.6L92.8838 0.52C91.6438 9.68 85.3238 16 78.5238 16.04V22.44C85.0437 22.4 90.9238 19 94.8838 13.64ZM77.8438 33.6H112.404V27.28H77.8438V33.6Z" fill="white"/>
<path d="M153.091 17.2H160.091V1.04H129.451V7.32H153.091V17.2ZM162.091 19.24H127.531V25.52H141.091V35.6H148.091V25.52H162.091V19.24Z" fill="white"/>
<path d="M189.048 2.4H180.808V0H173.928V2.4H165.688V7.08H189.048V2.4ZM198.088 6.32V0.639999H191.328V18.36H198.088V12.44H202.088V6.32H198.088ZM177.368 18.68C183.008 18.68 187.728 17 187.728 13.28C187.728 9.56 183.008 7.88 177.368 7.88C171.728 7.88 167.008 9.56 167.008 13.28C167.008 17 171.728 18.68 177.368 18.68ZM177.368 12.16C179.808 12.16 181.448 12.52 181.448 13.28C181.448 14.04 179.808 14.4 177.368 14.4C174.928 14.4 173.288 14.04 173.288 13.28C173.288 12.52 174.928 12.16 177.368 12.16ZM174.608 29.12H198.088V19.56H167.888V23.92H191.448V25.16H167.968V34.8H198.448V30.4H174.608V29.12Z" fill="white"/>
<path d="M230.684 14.12H232.844V25.96H238.684V0.639999H232.844V7.8H230.684V0.799999H224.924V25.36H230.684V14.12ZM213.244 20.52V15.56C212.564 15.8 211.724 15.92 210.884 15.92H210.564V6.24H213.164V1.04H204.804V21.12H208.764C210.244 21.12 212.204 20.88 213.244 20.52ZM223.844 20.36V15.36C222.924 15.76 221.604 15.92 220.444 15.92H220.044V6.24H223.124V1.04H214.324V21.12H218.884C220.724 21.12 222.644 20.84 223.844 20.36ZM213.724 28.72V23.44H206.844V34.8H239.084V28.72H213.724Z" fill="white"/>
<path d="M183.288 58.92C173.688 58.92 167.408 63.48 167.408 70.2C167.408 76.92 173.688 81.48 183.288 81.48C192.888 81.48 199.168 76.92 199.168 70.2C199.168 63.48 192.888 58.92 183.288 58.92ZM183.288 65.04C188.448 65.04 192.008 67.12 192.008 70.2C192.008 73.28 188.448 75.36 183.288 75.36C178.128 75.36 174.568 73.28 174.568 70.2C174.568 67.12 178.128 65.04 183.288 65.04ZM200.568 85.28H166.008V91.6H200.568V85.28Z" fill="white"/>
<path d="M225.204 85.44V81.6H237.564V75.68H213.084V73.32H237.164V59.44H206.324V65.36H230.484V67.68H206.404V81.6H218.324V85.44H204.484V91.6H239.044V85.44H225.204Z" fill="white"/>
<path d="M202.088 129.12H198.088V116.64H191.328V150.8H198.088V135.68H202.088V129.12ZM166.968 123.6H179.408V126.68C179.408 136.68 175.168 142.72 166.968 142.8V149.2C178.808 149.2 186.288 140.56 186.288 126.68V117.44H166.968V123.6Z" fill="white"/>
<path d="M213.324 116.44H206.564V129.16H237.364V124H213.324V116.44ZM239.044 131.08H204.484V136.28H239.044V131.08ZM221.764 137.76C212.564 137.76 206.164 139.56 206.164 144.48C206.164 149.4 212.564 151.2 221.764 151.2C230.964 151.2 237.364 149.4 237.364 144.48C237.364 139.56 230.964 137.76 221.764 137.76ZM221.764 142.8C226.724 142.8 230.164 143.28 230.164 144.48C230.164 145.72 226.724 146.16 221.764 146.16C216.804 146.16 213.364 145.72 213.364 144.48C213.364 143.28 216.804 142.8 221.764 142.8Z" fill="white"/>
<path d="M100.388 72.2461L99.8396 78.5196H117.178L110.27 85.4424H75.001L80.6674 78.5196H89.952L90.4504 72.2461H100.388ZM116.07 49.6396L112.791 52.9262C113.389 54.09 113.618 55.5485 113.483 57.3067L112.935 63.1306C112.701 65.588 111.824 67.4811 110.304 68.8047C108.779 70.1333 106.725 70.7976 104.144 70.7976H82.9384C80.3569 70.7976 78.4182 70.1333 77.1275 68.8047C75.8367 67.4761 75.2885 65.588 75.4878 63.1306L76.036 57.3067C76.2653 54.8193 77.1474 52.9162 78.6674 51.6076C80.1924 50.299 82.2457 49.6396 84.8272 49.6396H116.075H116.07ZM100.371 64.1795C101.333 64.1795 102.051 63.9547 102.534 63.5052C103.013 63.0557 103.287 62.3864 103.352 61.4873L103.601 58.9C103.666 57.971 103.501 57.2967 103.102 56.8821C102.704 56.4675 102.026 56.2578 101.064 56.2578H88.5999C87.638 56.2578 86.9204 56.4675 86.437 56.8821C85.9585 57.2967 85.6695 57.971 85.5698 58.9L85.3206 61.4873C85.2857 62.3814 85.4701 63.0557 85.8688 63.5052C86.2675 63.9547 86.9453 64.1795 87.9071 64.1795H100.376H100.371Z" fill="white"/>
<path d="M139.726 63.7233L137.344 66.1108L139.133 85.3808H131.633L130.691 75.0765L127.661 85.3808H121.302L120.061 75.0765L117.33 85.3808H109.68L115.281 63.7233H123.973L125.363 75.2763L128.747 63.7233H139.726ZM152.494 86.9741L149.265 90.2107L149.066 92.3535C149.001 92.7181 148.851 93.4973 148.617 94.6961L147.276 100.82H137.389L138.68 94.6961L138.929 93.3525H112.102L112.65 86.9791H152.494V86.9741ZM154.743 63.3237L151.248 67.9167L150.9 70.9408H159.247L152.888 77.3142H150.307L149.614 85.5306H140.125L142.059 63.3237L154.743 63.3237Z" fill="white"/>
<path d="M128.048 116.039L125.665 118.427L127.454 137.697H119.954L119.012 127.392L115.982 137.697H109.623L108.382 127.392L105.651 137.697H98.001L103.603 116.039H112.294L113.685 127.592L117.068 116.039H128.048ZM140.816 139.29L137.586 142.527L137.387 144.669C137.322 145.034 137.173 145.813 136.938 147.012L135.598 153.136H125.71L127.001 147.012L127.25 145.668H100.423L100.971 139.295H140.816V139.29ZM143.065 115.64L139.57 120.233L139.221 123.257H162.36L156.001 129.63H138.628L137.935 137.847H128.446L130.38 115.64L143.065 115.64Z" fill="white"/>
</svg>
