<svg width="217" height="15" viewBox="0 0 217 15" fill="none" xmlns="http://www.w3.org/2000/svg">
<path d="M8.04033 10.8595H12.723V13.5352H0V10.8595H4.68265V9.07685H8.04033V10.8595ZM4.15231 8.52416C3.36289 8.52416 2.66736 8.36098 2.06746 8.03463C1.46583 7.70828 1.00156 7.24683 0.671186 6.65203C0.34081 6.05723 0.175621 5.36768 0.175621 4.58338C0.175621 3.79909 0.34081 3.12709 0.671186 2.53229C1.00156 1.93749 1.46583 1.47779 2.06746 1.14968C2.6691 0.823332 3.36289 0.660156 4.15231 0.660156H8.57067C9.36009 0.660156 10.0556 0.823332 10.6555 1.14968C11.2572 1.47779 11.7214 1.93749 12.0518 2.53229C12.3822 3.12709 12.5474 3.81137 12.5474 4.58338C12.5474 5.3554 12.3822 6.05723 12.0518 6.65203C11.7214 7.24683 11.2572 7.70653 10.6555 8.03463C10.0539 8.36098 9.36009 8.52416 8.57067 8.52416H4.15231ZM4.75395 3.35343C4.37662 3.35343 4.07407 3.46572 3.84454 3.69206C3.61502 3.9184 3.50025 4.22194 3.50025 4.60093C3.50025 4.97992 3.61502 5.28521 3.84454 5.5098C4.07407 5.73614 4.37662 5.84843 4.75395 5.84843H7.97077C8.3481 5.84843 8.65065 5.73614 8.88018 5.5098C9.1097 5.28346 9.22446 4.98167 9.22446 4.60093C9.22446 4.22019 9.1097 3.91665 8.88018 3.69206C8.65065 3.46572 8.34636 3.35343 7.97077 3.35343H4.75395Z" fill="white"/>
<path d="M14.8447 3.38835V0.69508H22.7616V3.38835H14.8447ZM22.2312 4.10246L22.1078 10.8435H22.7616V13.5368H14.8447V10.8435H15.4985L15.3751 4.10246H18.3432L18.4667 10.8435H19.1379L19.2613 4.10246H22.2295H22.2312ZM23.8918 0.517868H27.2147V14.0702H23.8918V0.516113V0.517868Z" fill="white"/>
<path d="M35.6983 5.63421C35.0497 6.515 34.2412 7.2221 33.2692 7.75549C32.2972 8.29063 31.2226 8.60645 30.0436 8.7012L29.3359 6.20444C30.2314 6.14479 31.0261 5.86581 31.7216 5.36576C32.4171 4.8657 32.9683 4.19721 33.3735 3.36028C33.7804 2.52159 34.0012 1.57412 34.036 0.516113H37.3589C37.3937 1.57412 37.6145 2.52159 38.0214 3.36028C38.4283 4.19896 38.9777 4.86746 39.6733 5.36576C40.3688 5.86581 41.1634 6.14479 42.0589 6.20444L41.3512 8.7012C40.1723 8.60645 39.0977 8.29063 38.1257 7.75549C37.1537 7.22034 36.3434 6.51325 35.6948 5.63421H35.6983ZM29.3359 13.5351V10.8593H42.0607V13.5351H29.3359Z" fill="white"/>
<path d="M57.4889 10.735V14.0704H54.1661V10.735H49.4834V8.05926H62.1907V10.735H57.4889ZM58.5322 3.36928V6.72228H61.6604L61.8378 0.695312H49.8381V3.37104H58.5322V3.36928Z" fill="white"/>
<path d="M72.2639 0.874268V2.65691H64.3105V0.874268H66.6249V0.160156H69.9478V0.874268H72.2622H72.2639ZM69.8244 2.83588C70.5077 2.83588 71.0554 3.01485 71.4676 3.37103C71.8797 3.72721 72.0866 4.19743 72.0866 4.77995C72.0866 5.36247 71.8797 5.85375 71.4676 6.21519C71.0554 6.57839 70.5077 6.75911 69.8244 6.75911H66.7501C66.0668 6.75911 65.519 6.57839 65.1069 6.21519C64.6948 5.85199 64.4879 5.37475 64.4879 4.77995C64.4879 4.18515 64.6931 3.72721 65.1069 3.37103C65.519 3.01485 66.0668 2.83588 66.7501 2.83588H69.8244ZM67.9864 11.5737V12.1088H76.8579V14.0704H64.6635V9.61205H73.3768V9.0769H64.6635V7.11529H76.6805V11.5737H67.9864ZM69.0645 5.0291C69.1462 5.0291 69.2123 5.00629 69.2592 4.95716C69.3062 4.90979 69.3305 4.84487 69.3305 4.76065C69.3305 4.67643 69.3062 4.61151 69.2592 4.56414C69.2123 4.51676 69.148 4.4922 69.0645 4.4922H67.5274C67.4456 4.4922 67.3796 4.51676 67.3326 4.56414C67.2857 4.61151 67.2613 4.67643 67.2613 4.76065C67.2613 4.84487 67.2857 4.90979 67.3326 4.95716C67.3796 5.00454 67.4439 5.0291 67.5274 5.0291H69.0645ZM76.6805 2.56743H78.0055V4.83259H76.6805V6.70472H73.375V0.516335H76.6805V2.56743Z" fill="white"/>
<path d="M90.5889 3.36905H89.6882V5.86581H90.7315V8.54154H84.3691V0.69508H90.5906V3.37081L90.5889 3.36905ZM88.751 9.23635V11.3769H97.4451V14.0702H85.4281V9.2381H88.751V9.23635ZM86.7722 5.86581H87.5668V3.36905H86.7722V5.86581ZM97.4468 9.59252H94.6195V6.38341H94.0892V9.23635H91.2618V0.516113H94.0892V3.56556H94.6195V0.516113H97.4468V9.59428V9.59252Z" fill="white"/>
<path d="M112.909 10.8595H117.592V13.5352H104.867V10.8595H109.55V9.07685H112.908V10.8595H112.909ZM109.021 8.52416C108.232 8.52416 107.536 8.36098 106.936 8.03463C106.335 7.70828 105.87 7.24683 105.54 6.65203C105.21 6.05723 105.045 5.36768 105.045 4.58338C105.045 3.79909 105.21 3.12709 105.54 2.53229C105.87 1.93749 106.335 1.47779 106.936 1.14968C107.538 0.823332 108.232 0.660156 109.021 0.660156H113.44C114.229 0.660156 114.925 0.823332 115.524 1.14968C116.126 1.47779 116.59 1.93749 116.921 2.53229C117.251 3.12709 117.416 3.81137 117.416 4.58338C117.416 5.3554 117.251 6.05723 116.921 6.65203C116.59 7.24683 116.126 7.70653 115.524 8.03463C114.923 8.36098 114.229 8.52416 113.44 8.52416H109.021ZM109.623 3.35343C109.246 3.35343 108.943 3.46572 108.713 3.69206C108.484 3.9184 108.369 4.22194 108.369 4.60093C108.369 4.97992 108.484 5.28521 108.713 5.5098C108.943 5.73614 109.246 5.84843 109.623 5.84843H112.84C113.217 5.84843 113.52 5.73614 113.749 5.5098C113.979 5.28346 114.093 4.98167 114.093 4.60093C114.093 4.22019 113.979 3.91665 113.749 3.69206C113.52 3.46572 113.215 3.35343 112.84 3.35343H109.623Z" fill="white"/>
<path d="M133.409 5.77808H132.084V8.36432H128.761V7.38352L127.612 8.54329C126.893 7.97305 126.309 7.40808 125.862 6.84837C125.438 7.35895 124.866 7.92392 124.148 8.54329L122.381 6.84837C122.016 7.27649 121.421 7.84146 120.595 8.54329L118.651 6.76064C119.241 6.15356 119.679 5.62017 119.968 5.15521C120.256 4.692 120.444 4.24283 120.533 3.80945C120.621 3.37607 120.665 2.83215 120.665 2.17769L120.648 0.696834H123.687C123.687 1.99346 123.67 2.94444 123.633 3.54977C123.598 4.15685 123.51 4.69024 123.369 5.15521C123.71 4.71481 123.96 4.29722 124.12 3.89718C124.278 3.49889 124.379 3.07077 124.421 2.61283C124.463 2.15489 124.483 1.51622 124.483 0.69508H127.523V2.03207C127.523 2.6023 127.549 3.06902 127.603 3.43222C127.657 3.79541 127.772 4.1551 127.947 4.51128C128.124 4.86746 128.394 5.26575 128.761 5.70614V0.516113H132.084V3.10236H133.409V5.77808ZM120.065 11.6629V8.9872H132.082V14.0702H128.759V11.6629H120.065Z" fill="white"/>
<path d="M147.195 10.8593V13.535H134.471V10.8593H147.195ZM146.524 6.65008C146.194 7.24488 145.73 7.70457 145.128 8.03268C144.526 8.35903 143.833 8.52221 143.043 8.52221H138.625C137.835 8.52221 137.14 8.35903 136.54 8.03268C135.938 7.70633 135.474 7.24488 135.144 6.65008C134.813 6.05527 134.648 5.36573 134.648 4.58143C134.648 3.79714 134.813 3.12513 135.144 2.53033C135.474 1.93553 135.938 1.47583 136.54 1.14773C137.142 0.821379 137.835 0.658203 138.625 0.658203H143.043C143.833 0.658203 144.528 0.821379 145.128 1.14773C145.73 1.47583 146.194 1.93553 146.524 2.53033C146.855 3.12513 147.02 3.80942 147.02 4.58143C147.02 5.35344 146.855 6.05527 146.524 6.65008ZM139.225 3.35148C138.847 3.35148 138.545 3.46377 138.315 3.69011C138.086 3.91645 137.971 4.21999 137.971 4.59898C137.971 4.97797 138.086 5.28326 138.315 5.50785C138.545 5.73419 138.847 5.84648 139.225 5.84648H142.441C142.819 5.84648 143.121 5.73419 143.351 5.50785C143.58 5.28151 143.695 4.97972 143.695 4.59898C143.695 4.21823 143.58 3.91469 143.351 3.69011C143.121 3.46377 142.817 3.35148 142.441 3.35148H139.225Z" fill="white"/>
<path d="M162.039 13.5353H149.314V10.8596H154.016V10.0577H149.669V4.0483H158.541V3.37104H149.669V0.695312H161.686V6.72227H152.797V7.38199H161.864V10.0577H157.339V10.8596H162.041V13.5353H162.039Z" fill="white"/>
<path d="M183.157 5.77808H181.832V8.36432H178.509V7.38352L177.36 8.54329C176.641 7.97305 176.057 7.40808 175.61 6.84837C175.186 7.35895 174.614 7.92392 173.896 8.54329L172.129 6.84837C171.764 7.27649 171.169 7.84146 170.343 8.54329L168.399 6.76064C168.989 6.15356 169.427 5.62017 169.716 5.15521C170.004 4.692 170.192 4.24283 170.281 3.80945C170.37 3.37607 170.413 2.83215 170.413 2.17769L170.396 0.696834H173.435C173.435 1.99346 173.418 2.94444 173.381 3.54977C173.346 4.15685 173.258 4.69024 173.117 5.15521C173.458 4.71481 173.708 4.29722 173.868 3.89718C174.026 3.49889 174.127 3.07077 174.169 2.61283C174.211 2.15489 174.231 1.51622 174.231 0.69508H177.271V2.03207C177.271 2.6023 177.297 3.06902 177.351 3.43222C177.405 3.79541 177.52 4.1551 177.695 4.51128C177.873 4.86746 178.142 5.26575 178.509 5.70614V0.516113H181.832V3.10236H183.157V5.77808ZM169.813 11.6629V8.9872H181.83V14.0702H178.507V11.6629H169.813Z" fill="white"/>
<path d="M189.343 10.8593C189.991 10.8593 190.65 10.6277 191.322 10.1645C191.993 9.70131 192.565 8.90649 193.036 7.78356C193.507 6.66063 193.744 5.17802 193.744 3.33396H189.52V0.659988H197.067V3.33571C197.067 5.39208 196.757 7.19051 196.138 8.72928C195.519 10.2698 194.653 11.4559 193.54 12.2876C192.427 13.1192 191.146 13.5368 189.696 13.5368L189.343 10.8611V10.8593ZM201.89 5.6693H203.215V8.34502H201.89V14.0684H198.567V0.516113H201.89V5.67105V5.6693Z" fill="white"/>
<path d="M217 5.35023V7.82944H204.275V5.35023H217ZM216.647 2.08672V4.58348H204.63V0.712891H207.936V2.08672H216.649H216.647ZM215.861 13.2949C215.336 13.8125 214.674 14.0705 213.874 14.0705H207.405C206.604 14.0705 205.941 13.8125 205.418 13.2949C204.893 12.7773 204.632 12.1211 204.632 11.3246C204.632 10.528 204.894 9.87177 205.418 9.35417C205.941 8.83657 206.605 8.57865 207.405 8.57865H213.874C214.675 8.57865 215.338 8.83657 215.861 9.35417C216.385 9.87177 216.647 10.528 216.647 11.3246C216.647 12.1211 216.385 12.7773 215.861 13.2949ZM208.289 10.9859C208.195 10.9859 208.115 11.0193 208.05 11.0842C207.986 11.1491 207.953 11.2298 207.953 11.3246C207.953 11.4193 207.986 11.5 208.05 11.5649C208.115 11.6299 208.195 11.6632 208.289 11.6632H212.99C213.084 11.6632 213.164 11.6299 213.229 11.5649C213.293 11.5 213.326 11.4193 213.326 11.3246C213.326 11.2298 213.293 11.1491 213.229 11.0842C213.164 11.0193 213.084 10.9859 212.99 10.9859H208.289Z" fill="white"/>
</svg>
