<svg width="70" height="34" viewBox="0 0 70 34" fill="none" xmlns="http://www.w3.org/2000/svg">
<g clip-path="url(#clip0_1930_367)">
<path d="M27.9909 26.7059C27.9311 26.7059 27.8712 26.6869 27.8191 26.6488C27.6906 26.5524 27.664 26.3698 27.7593 26.2409C29.1935 24.2836 27.8114 22.1458 27.7515 22.0562C27.6629 21.9229 27.6983 21.7414 27.8302 21.6517C27.9621 21.5621 28.1417 21.5968 28.2304 21.7313C28.247 21.757 29.9029 24.297 28.2226 26.5883C28.1661 26.6656 28.0785 26.7059 27.9909 26.7059Z" fill="black"/>
<path d="M30.3587 25.642C30.3077 25.642 30.2567 25.6285 30.2101 25.6005C30.0738 25.5176 30.0295 25.3383 30.1115 25.2005C30.7854 24.0644 30.1547 23.1692 30.127 23.1323C30.0328 23.0023 30.0594 22.8208 30.188 22.7244C30.3154 22.6292 30.495 22.655 30.5903 22.7827C30.6269 22.8331 31.4859 24.0196 30.6069 25.4997C30.5526 25.5904 30.4573 25.6409 30.3587 25.6409V25.642Z" fill="black"/>
<path d="M24.9393 20.0419L24.7265 19.8425C24.1169 19.3147 23.4441 18.9327 22.7281 18.7086C22.6361 18.6795 22.543 18.6526 22.4488 18.6268C22.7103 18.2918 22.9497 17.9355 23.167 17.5591C23.8231 16.4196 24.2111 15.0807 24.3175 13.5794C24.4161 12.3099 24.2942 11.0808 23.9561 9.92233C23.5848 8.65067 22.9132 7.47648 21.9611 6.43113L21.9422 6.40984C21.5355 5.96952 21.0866 5.57738 20.6022 5.23901C20.181 4.94659 19.7366 4.68777 19.2821 4.47153L19.2134 4.44016C18.2613 4.00992 17.2572 3.72758 16.2242 3.59985C15.6079 3.52366 14.9883 3.46092 14.3887 3.41274L16.795 0.455978C16.9213 0.301361 16.7772 0.0739177 16.5855 0.124336L11.2886 1.51253C11.1633 1.54502 11.1002 1.68507 11.1556 1.80271L11.8926 3.34664C11.5967 3.35896 11.3008 3.37577 11.0082 3.40378C9.93083 3.5035 8.85682 3.72982 7.81495 4.07939C5.94624 4.68777 4.42444 5.72975 3.29391 7.17508C2.09354 8.70893 1.48505 10.5711 1.48505 12.7088C1.48505 13.5939 1.57372 14.4634 1.74995 15.2925C1.97827 16.3725 2.43381 17.3888 3.10327 18.3131C3.21632 18.4756 3.33381 18.6335 3.45573 18.7859C3.38258 18.8128 3.30942 18.8408 3.23738 18.8699C2.20881 19.2856 1.36978 20.0374 0.807834 21.0469C0.348969 21.8726 0.116211 22.7443 0.116211 23.6362C0.116211 25.0837 0.72914 26.4417 1.84194 27.459L1.96941 27.5699C2.8428 28.2982 3.92014 28.7217 5.08503 28.7957C5.39538 28.8147 5.69907 28.8248 5.9939 28.8248C6.17124 28.8248 6.34525 28.8214 6.51483 28.8136C6.66779 28.8113 6.81963 28.8024 6.96372 28.7901H8.7881L7.30177 32.3597L3.95671 31.0074C3.61977 30.8718 3.23738 31.0376 3.10216 31.3771C2.96694 31.7177 3.13098 32.1042 3.46792 32.2409L7.41261 33.8353C7.49241 33.8678 7.57554 33.8834 7.65645 33.8834C7.91359 33.8834 8.15743 33.73 8.26273 33.4767L10.2146 28.7901H14.9351L17.0499 33.4935C17.1275 33.6661 17.2738 33.7972 17.4533 33.8532C17.5176 33.8734 17.583 33.8834 17.6484 33.8834C17.7659 33.8834 17.8834 33.851 17.9865 33.7882L21.3227 31.7648L22.0564 33.2493C22.2193 33.5776 22.6139 33.7109 22.9387 33.5462C23.2634 33.3826 23.3953 32.9826 23.2324 32.6544L22.1805 30.5278C22.0985 30.362 21.9522 30.2388 21.776 30.1872C21.6009 30.1357 21.4113 30.1603 21.2539 30.2556L17.941 32.2645L16.3782 28.7889H20.8294C21.1364 28.7889 21.4545 28.7654 21.8048 28.7172C22.2105 28.6612 22.6239 28.5626 23.0284 28.4259C23.771 28.1772 24.4205 27.775 24.9592 27.2304L25.1499 27.0232C25.5987 26.4955 25.929 25.8568 26.1363 25.1151C26.2826 24.584 26.3569 24.053 26.3569 23.5353C26.3569 22.2088 25.8537 20.9674 24.9393 20.0419Z" fill="#FF5151"/>
<path d="M7.65551 34.0001C7.55687 34.0001 7.46044 33.9811 7.36844 33.9441L3.42375 32.3486C3.02807 32.1884 2.83521 31.7335 2.99371 31.3335C3.1522 30.9336 3.6022 30.7386 3.99789 30.8977L7.23766 32.2075L8.61314 28.9056H6.96832C6.82091 28.9191 6.66906 28.9269 6.51611 28.9291C6.06057 28.9482 5.5751 28.9415 5.07744 28.9101C3.88927 28.835 2.78866 28.4014 1.89642 27.6575L1.76674 27.5443C0.626229 26.5046 0 25.1164 0 23.6352C0 22.7232 0.2383 21.8325 0.706032 20.9888C1.28128 19.9569 2.14137 19.186 3.19432 18.7614C3.21871 18.7513 3.24198 18.7424 3.26637 18.7323C3.1788 18.618 3.09235 18.5003 3.00922 18.3805C2.33201 17.4449 1.86982 16.413 1.63706 15.3173C1.45972 14.4803 1.36995 13.603 1.36995 12.7089C1.36995 10.5443 1.9862 8.65753 3.20319 7.1024C4.34813 5.63802 5.88766 4.5826 7.77965 3.96749C8.82928 3.61568 9.91215 3.38712 10.9984 3.2874C11.2178 3.26723 11.4539 3.25155 11.7133 3.2381L11.0527 1.85328C11.0105 1.76588 11.0105 1.66505 11.0504 1.57653C11.0903 1.48802 11.1679 1.42416 11.261 1.39951L16.5568 0.0113189C16.6932 -0.0245343 16.8306 0.0303659 16.9071 0.15025C16.9824 0.270134 16.9736 0.419149 16.8849 0.530069L14.6183 3.31541C15.1636 3.36247 15.7078 3.41961 16.2387 3.48459C17.2817 3.61344 18.2992 3.89915 19.2613 4.33499L19.3311 4.36748C19.7911 4.58708 20.2411 4.84813 20.6678 5.14392C21.1577 5.48565 21.6154 5.88452 22.0277 6.33044L22.0466 6.35173C23.0109 7.41164 23.6914 8.60151 24.0683 9.88999C24.4096 11.0619 24.5327 12.3067 24.434 13.5896C24.3265 15.1077 23.9341 16.4646 23.268 17.6186C23.0785 17.9469 22.8701 18.2639 22.6462 18.562C22.6861 18.5732 22.7249 18.5855 22.7637 18.5978C23.4941 18.8275 24.1802 19.2163 24.8031 19.7552L25.0192 19.958L25.0226 19.9614C25.9591 20.9092 26.4745 22.1798 26.4745 23.5377C26.4745 24.0654 26.3992 24.6066 26.2495 25.1489C26.0389 25.904 25.6987 26.5617 25.2398 27.1017L25.0458 27.3124C24.4916 27.8726 23.8266 28.2849 23.0663 28.5392C22.654 28.6782 22.235 28.7779 21.8216 28.835C21.4669 28.8832 21.1433 28.9079 20.8296 28.9079H16.5579L17.9933 32.0988L21.1954 30.1571C21.3793 30.0451 21.6032 30.0159 21.8094 30.0764C22.0156 30.1369 22.1885 30.2837 22.2849 30.4775L23.3367 32.6041C23.5274 32.9895 23.3722 33.4601 22.9909 33.6517C22.8058 33.7447 22.5963 33.7604 22.4013 33.6942C22.2051 33.6281 22.0466 33.4892 21.9546 33.3021L21.2763 31.9296L18.0476 33.8881C17.8603 34.0012 17.6275 34.0293 17.4202 33.9643C17.2108 33.8982 17.0379 33.7447 16.947 33.5419L14.8632 28.9067H10.2934L8.37152 33.5217C8.25071 33.8119 7.9714 34.0001 7.65884 34.0001H7.65551ZM3.71304 31.0758C3.49802 31.0758 3.29297 31.2058 3.20873 31.4198C3.09789 31.6999 3.23311 32.0192 3.51021 32.1324L7.4549 33.7267C7.51918 33.7525 7.58679 33.766 7.65551 33.766C7.87386 33.766 8.07004 33.6349 8.15539 33.431L10.1072 28.7443C10.125 28.7006 10.1671 28.6726 10.2136 28.6726H14.9342C14.9796 28.6726 15.0206 28.6995 15.0395 28.7409L17.1542 33.4444C17.2185 33.5867 17.3393 33.6942 17.4868 33.7402C17.6319 33.7861 17.796 33.7671 17.9268 33.6875L21.263 31.6641C21.2907 31.6473 21.3239 31.6428 21.355 31.6517C21.386 31.6607 21.4115 31.682 21.4259 31.7111L22.1596 33.1957C22.225 33.3268 22.3359 33.4242 22.4733 33.4702C22.6107 33.5161 22.7571 33.506 22.8867 33.4399C23.1538 33.3043 23.2625 32.9749 23.1295 32.7049L22.0776 30.5784C22.01 30.4428 21.8892 30.3397 21.744 30.2972C21.5999 30.2546 21.4425 30.2748 21.314 30.3532L18.001 32.3621C17.9733 32.3789 17.939 32.3834 17.9068 32.3733C17.8758 32.3632 17.8492 32.3408 17.8359 32.3105L16.2731 28.835C16.2565 28.7992 16.2598 28.7566 16.2808 28.7241C16.3019 28.6905 16.3385 28.6703 16.3784 28.6703H20.8296C21.1322 28.6703 21.4458 28.6468 21.7894 28.5997C22.1885 28.5448 22.593 28.4485 22.992 28.3129C23.718 28.0698 24.352 27.6765 24.8785 27.1454L25.0658 26.9404C25.5003 26.4295 25.8239 25.8021 26.0256 25.0794C26.1686 24.5584 26.2418 24.0374 26.2418 23.5321C26.2418 22.2369 25.7508 21.0269 24.8596 20.1227L24.649 19.9255C24.0538 19.4112 23.3955 19.037 22.695 18.8174C22.6041 18.7894 22.5121 18.7625 22.4201 18.7368C22.3824 18.7267 22.3525 18.6975 22.3403 18.6606C22.3281 18.6236 22.3348 18.5821 22.3591 18.5519C22.6163 18.2225 22.8546 17.8684 23.0674 17.4976C23.7147 16.3738 24.0971 15.0517 24.2024 13.5683C24.2999 12.3123 24.1791 11.0967 23.8455 9.95161C23.4786 8.69787 22.8158 7.53824 21.8759 6.50634L21.8571 6.48618C21.4569 6.05258 21.0114 5.66491 20.5359 5.33215C20.1191 5.04309 19.6802 4.78763 19.2324 4.57475L19.1648 4.54338C18.2249 4.11875 17.2296 3.83864 16.2099 3.71316C15.6114 3.63921 14.9951 3.57647 14.3789 3.52605C14.3357 3.52269 14.2991 3.4958 14.2825 3.45546C14.2658 3.41513 14.2725 3.36919 14.2991 3.33558L16.7065 0.381055C16.7441 0.333997 16.7209 0.288061 16.7131 0.275736C16.7054 0.262291 16.6743 0.221956 16.6156 0.236522L11.3187 1.62471C11.2832 1.63367 11.2666 1.65944 11.2599 1.67401C11.2533 1.68857 11.2444 1.71771 11.2599 1.75132L11.997 3.29524C12.0136 3.3311 12.0114 3.37255 11.9915 3.40617C11.9715 3.43978 11.936 3.46107 11.8972 3.46219C11.5692 3.47563 11.2821 3.49468 11.0183 3.51821C9.94984 3.6168 8.88358 3.84201 7.85058 4.18821C6.00293 4.78987 4.49998 5.81841 3.38385 7.24581C2.20011 8.75949 1.60049 10.597 1.60049 12.7078C1.60049 13.5851 1.68916 14.4456 1.86317 15.2668C2.08817 16.3312 2.53706 17.3318 3.19654 18.2438C3.30959 18.4062 3.42708 18.5631 3.54568 18.7121C3.56895 18.7412 3.57671 18.7805 3.56673 18.8174C3.55676 18.8533 3.53016 18.8835 3.49469 18.8959C3.42265 18.9216 3.35171 18.9496 3.28078 18.9776C2.2777 19.3832 1.4564 20.1182 0.907755 21.1031C0.458865 21.9109 0.230541 22.7624 0.230541 23.6352C0.230541 25.0503 0.830169 26.3768 1.91859 27.3718L2.04383 27.4816C2.89728 28.1919 3.95134 28.6076 5.09074 28.6793C5.58064 28.7107 6.05392 28.7163 6.50835 28.6983C6.66019 28.6961 6.80872 28.6882 6.9517 28.6748C6.95502 28.6748 6.95835 28.6748 6.96167 28.6748H8.78605C8.82484 28.6748 8.86031 28.6938 8.88248 28.7275C8.90353 28.76 8.90797 28.8014 8.89245 28.8373L7.40613 32.4069C7.38174 32.4652 7.31524 32.4932 7.2565 32.4696L3.91144 31.1173C3.84604 31.0904 3.77843 31.0781 3.71082 31.0781L3.71304 31.0758Z" fill="#FF0000"/>
<path d="M7.50135 11.5547C6.23448 11.5547 5.18042 12.6605 4.94434 14.126C5.23362 13.5412 5.75677 13.1502 6.3564 13.1502C7.26859 13.1502 8.00898 14.0554 8.00898 15.1725C8.00898 16.2895 7.26859 17.1948 6.3564 17.1948C6.10812 17.1948 5.87315 17.1254 5.66145 17.0055C6.13251 17.5803 6.78312 17.9354 7.50024 17.9354C8.94001 17.9354 10.1071 16.5069 10.1071 14.7456C10.1071 12.9843 8.94001 11.5558 7.50024 11.5558L7.50135 11.5547Z" fill="white"/>
<path d="M8.00905 15.1713C8.00905 14.0542 7.26866 13.1489 6.35647 13.1489C5.75684 13.1489 5.23369 13.5411 4.94441 14.1248C4.91227 14.3254 4.89453 14.5315 4.89453 14.7433C4.89453 15.6262 5.18825 16.4261 5.66263 17.0031C5.87433 17.123 6.1093 17.1925 6.35758 17.1925C7.26977 17.1925 8.01016 16.2872 8.01016 15.1701L8.00905 15.1713Z" fill="black"/>
<path d="M15.3897 11.5548C14.1517 11.5548 13.1176 12.6114 12.8516 14.0265C13.1497 13.4965 13.6485 13.1492 14.2126 13.1492C15.1248 13.1492 15.8652 14.0545 15.8652 15.1715C15.8652 16.2886 15.1248 17.1939 14.2126 17.1939C13.9899 17.1939 13.7771 17.139 13.5831 17.0404C14.0519 17.5927 14.687 17.9333 15.3897 17.9333C16.8295 17.9333 17.9966 16.5048 17.9966 14.7435C17.9966 12.9822 16.8295 11.5537 15.3897 11.5537V11.5548Z" fill="white"/>
<path d="M15.8666 15.1713C15.8666 14.0542 15.1262 13.1489 14.214 13.1489C13.6487 13.1489 13.1499 13.4963 12.8529 14.0262C12.8097 14.257 12.7842 14.4968 12.7842 14.7444C12.7842 15.6474 13.0923 16.4609 13.5844 17.0412C13.7784 17.1398 13.9912 17.1947 14.214 17.1947C15.1262 17.1947 15.8666 16.2894 15.8666 15.1724V15.1713Z" fill="black"/>
</g>
<g clip-path="url(#clip1_1930_367)">
<path d="M61.8593 17.835C62.8859 17.4655 63.7533 16.7443 64.3233 15.7637C64.757 15.019 64.9783 14.1754 64.9783 13.2566C64.9783 12.732 64.9227 12.231 64.8115 11.766C64.6219 10.8774 64.1838 10.0833 63.5365 9.45762C63.094 9.03078 62.5709 8.70952 61.9432 8.48262C61.9432 8.38826 61.9399 8.29391 61.9356 8.19955C61.9149 7.74125 61.844 7.29082 61.7263 6.85948C61.6751 6.65392 61.6163 6.45173 61.553 6.25515C61.3918 5.75866 61.1455 5.2779 60.8185 4.82859C60.7586 4.74659 60.6954 4.66683 60.6289 4.58933C60.2824 4.18832 59.8726 3.86257 59.4051 3.60646L60.9493 2.34726C61.0768 2.24392 60.9744 2.09003 60.8 2.1226L56.1684 2.99989C56.1422 3.00326 56.1161 3.00438 56.0899 3.00775C56.0594 3.01112 56.03 3.01561 56.0006 3.02011C55.4055 3.10772 54.8334 3.28745 54.3048 3.55029C53.3861 4.0041 52.6712 4.71738 52.2386 5.61151C52.0631 5.97209 51.9258 6.36299 51.8277 6.77972C51.7754 6.57079 51.71 6.36411 51.6348 6.1608C51.6163 6.11137 51.5967 6.06307 51.576 6.01477C51.1335 4.97686 50.3674 4.17484 49.4117 3.72328L50.8491 2.64268C50.9788 2.54496 50.8785 2.40567 50.702 2.43937L45.8372 3.36158C45.8088 3.3672 45.7838 3.37619 45.7609 3.38854C45.1658 3.52558 44.6264 3.76484 44.1491 4.10856C43.3655 4.6702 42.7759 5.45762 42.4435 6.38208C42.2376 6.95496 42.1133 7.57276 42.0774 8.21303C42.0719 8.30402 42.0665 8.39612 42.061 8.48823C42.049 8.50171 42.0381 8.51631 42.0262 8.52867C41.8343 8.74996 41.6556 8.97349 41.4943 9.19365C41.2208 9.5576 40.9483 9.91255 40.677 10.2585L39.7975 11.3784C39.7866 11.3919 39.7768 11.4054 39.7659 11.4189C39.6504 11.5705 39.5 11.7446 39.318 11.9378C38.905 12.377 38.5323 12.8522 38.2086 13.352C37.7956 13.9912 37.4883 14.682 37.2954 15.4054C37.0044 16.4961 37.0611 17.6317 37.4599 18.6966C37.6713 19.2841 37.9798 19.8075 38.3677 20.2467C38.0789 21.0173 37.9242 21.9946 38.092 23.201C38.2097 24.167 38.6227 25.0386 39.2886 25.7238C39.6341 26.081 40.0198 26.3843 40.4361 26.6247C40.798 26.8348 41.1467 26.9909 41.4867 27.0976C41.8115 27.2021 42.2016 27.3122 42.7149 27.3122H46.1031L45.3271 32.4062H43.0266C42.6691 32.4062 42.3803 32.7365 42.3803 33.1442C42.3803 33.552 42.6702 33.8822 43.0266 33.8822H45.8709C46.1848 33.8822 46.454 33.6239 46.5074 33.2712L47.4152 27.3122H51.8277C51.8888 27.5784 51.9683 27.8367 52.0642 28.0839C52.2953 28.6814 52.6298 29.2229 53.0592 29.6946C53.6019 30.29 54.2852 30.7213 55.0928 30.9785C55.6148 31.1549 56.1084 31.1976 56.4604 31.2133L57.4652 33.4924C57.5415 33.6654 57.6854 33.7969 57.8619 33.853C57.9251 33.8732 57.9894 33.8833 58.0537 33.8833C58.1692 33.8833 58.2848 33.8508 58.3861 33.7879L61.6664 31.7592L62.3878 33.2476C62.548 33.5767 62.936 33.7104 63.2553 33.5452C63.5746 33.3812 63.7043 32.9802 63.5441 32.6511L62.5099 30.5191C62.4292 30.3529 62.2854 30.2293 62.1121 30.1776C61.9399 30.126 61.7536 30.1507 61.5988 30.2462L58.3414 32.2602L57.8597 31.1684C58.8046 31.0224 59.659 30.6146 60.363 29.9642C61.2719 29.1251 61.8146 28.0041 61.9367 26.6988C61.9628 26.3956 61.9759 26.0912 61.9759 25.7924V25.206C61.9759 25.1139 61.9715 24.9443 61.9563 24.6826C61.9519 24.6129 61.9508 24.5388 61.9508 24.4602V22.1687C61.9508 21.3049 61.734 20.4725 61.3253 19.7267C61.5498 19.2537 61.7078 18.7561 61.7961 18.2394C61.819 18.1046 61.8397 17.9687 61.8571 17.8328L61.8593 17.835Z" fill="#3E00FF"/>
<path d="M58.0562 34.0003C57.9788 34.0003 57.9037 33.9879 57.8306 33.9643C57.6247 33.898 57.4547 33.7442 57.3653 33.5408L56.3888 31.3268C56.051 31.3089 55.5693 31.2617 55.0604 31.0898C54.2354 30.8281 53.5347 30.3855 52.98 29.7745C52.5408 29.2926 52.1986 28.7377 51.9621 28.1266C51.8749 27.902 51.8008 27.6683 51.742 27.4291H47.5157L46.6221 33.2892C46.56 33.7003 46.2451 33.9991 45.8734 33.9991H43.0291C42.6106 33.9991 42.2695 33.6161 42.2695 33.1443C42.2695 32.6725 42.6106 32.2895 43.0291 32.2895H45.2326L45.9737 27.4291H42.7185C42.1888 27.4291 41.7889 27.3156 41.4565 27.2089C41.1034 27.0977 40.7525 26.9404 40.3842 26.7259C39.9591 26.4799 39.5646 26.1699 39.2115 25.8059C38.5282 25.1028 38.1032 24.2075 37.9822 23.2156C37.834 22.153 37.9212 21.1623 38.2405 20.2727C37.8602 19.829 37.5638 19.3134 37.3567 18.7383C36.9502 17.652 36.8914 16.4883 37.1889 15.3752C37.385 14.6394 37.6978 13.9374 38.1174 13.2881C38.4443 12.7826 38.8225 12.3007 39.2388 11.857C39.4186 11.6661 39.5657 11.4942 39.678 11.3471L39.7107 11.3055L40.5901 10.1856C40.8604 9.84188 41.135 9.48467 41.4064 9.12185C41.5677 8.90281 41.7486 8.67591 41.9436 8.45013L41.9524 8.44002L41.9665 8.20413C42.0047 7.55038 42.13 6.92247 42.3403 6.33949C42.6803 5.39144 43.2852 4.58605 44.0873 4.00981C44.5679 3.66496 45.1193 3.41784 45.7263 3.27518C45.7557 3.26058 45.7863 3.25047 45.82 3.24485L50.6816 2.32376C50.8265 2.29568 50.9595 2.35409 51.0053 2.46417C51.0445 2.55853 51.0096 2.66636 50.9159 2.73601L49.631 3.70203C50.5356 4.17942 51.2592 4.97695 51.6798 5.96656C51.7006 6.01598 51.7213 6.06653 51.7398 6.11708C51.7692 6.19683 51.7975 6.27658 51.8237 6.35634C51.9098 6.07552 52.0144 5.80818 52.1365 5.55656C52.5811 4.63772 53.3134 3.90759 54.255 3.44255C54.7967 3.17409 55.3786 2.99211 55.9845 2.90225C56.0161 2.89776 56.0466 2.89327 56.0772 2.8899C56.0935 2.88765 56.1099 2.88653 56.1251 2.8854L56.1534 2.88316L60.7818 2.007C60.9246 1.98004 61.0532 2.03845 61.1033 2.1519C61.1469 2.25075 61.1153 2.36308 61.0226 2.43834L59.6124 3.58858C60.0331 3.83907 60.4047 4.14909 60.7164 4.51079C60.7851 4.59054 60.8504 4.67254 60.9115 4.75791C61.245 5.21733 61.4978 5.70933 61.6623 6.21817C61.7266 6.41924 61.7855 6.6248 61.8378 6.83036C61.9577 7.26732 62.0296 7.72674 62.0514 8.19402C62.0547 8.26254 62.0568 8.33106 62.0579 8.40071C62.666 8.63098 63.1772 8.94887 63.6163 9.37347C64.2778 10.0126 64.7301 10.8315 64.9241 11.7413C65.0363 12.2131 65.093 12.7242 65.093 13.2578C65.093 14.1991 64.8674 15.0629 64.4228 15.8256C63.8594 16.7939 62.9886 17.5375 61.9642 17.9239C61.949 18.034 61.9315 18.1474 61.9119 18.2642C61.8258 18.7697 61.6722 19.2617 61.4564 19.7279C61.8563 20.4771 62.0677 21.3218 62.0677 22.1732V24.4647C62.0677 24.5524 62.0699 24.6209 62.0732 24.6804C62.0906 24.9837 62.0939 25.1432 62.0939 25.2117V25.7981C62.0939 26.0991 62.0808 26.408 62.0536 26.7147C61.9304 28.0424 61.3725 29.1971 60.4429 30.0564C59.7574 30.6888 58.9455 31.0955 58.0279 31.2639L58.3951 32.0974L61.5436 30.1508C61.7245 30.0384 61.9446 30.0092 62.1473 30.0699C62.35 30.1306 62.52 30.2777 62.6148 30.472L63.649 32.604C63.8365 32.9904 63.6839 33.4622 63.309 33.6543C62.9341 33.8475 62.4775 33.6902 62.289 33.3038L61.622 31.9278L58.4475 33.8913C58.3298 33.9643 58.1946 34.0025 58.0562 34.0025V34.0003ZM47.4177 27.1966H51.8302C51.8825 27.1966 51.9283 27.2336 51.9403 27.2864C51.9992 27.5459 52.0776 27.7998 52.1713 28.0413C52.3969 28.6254 52.7239 29.1544 53.1434 29.615C53.672 30.1946 54.3389 30.6158 55.1279 30.8674C55.6478 31.0438 56.1415 31.0831 56.4673 31.0977C56.5098 31.0999 56.5479 31.1258 56.5654 31.1662L57.5702 33.4454C57.6334 33.588 57.7522 33.6958 57.8971 33.7419C58.0399 33.788 58.2012 33.7689 58.3298 33.6891L61.61 31.6605C61.6373 31.6436 61.67 31.6391 61.7005 31.6481C61.731 31.6571 61.7561 31.6784 61.7702 31.7076L62.4917 33.196C62.6235 33.4667 62.9439 33.5768 63.2066 33.442C63.4692 33.3061 63.576 32.9758 63.4452 32.7051L62.411 30.5731C62.3446 30.4372 62.2258 30.3339 62.083 30.2912C61.9413 30.2485 61.7866 30.2687 61.6602 30.3474L58.4028 32.3614C58.3755 32.3782 58.3417 32.3827 58.3101 32.3726C58.2796 32.3625 58.2535 32.34 58.2404 32.3097L57.7587 31.2179C57.7435 31.1842 57.7456 31.146 57.762 31.1134C57.7794 31.0809 57.8099 31.0595 57.8448 31.0539C58.7788 30.9101 59.6005 30.5147 60.2892 29.8789C61.1763 29.0601 61.707 27.957 61.8258 26.69C61.852 26.3912 61.865 26.089 61.865 25.7947V25.2083C61.865 25.1421 61.8629 24.9882 61.8454 24.6916C61.8411 24.6276 61.8389 24.5546 61.8389 24.4614V22.1699C61.8389 21.3386 61.6275 20.5142 61.2275 19.7863C61.209 19.7526 61.2079 19.7121 61.2242 19.6773C61.4444 19.2145 61.5991 18.7248 61.6852 18.2215C61.7081 18.0834 61.7288 17.9486 61.7452 17.8205C61.7506 17.7767 61.78 17.7408 61.8204 17.7262C62.823 17.3656 63.6763 16.6467 64.2244 15.7043C64.6484 14.9786 64.8631 14.1553 64.8631 13.2566C64.8631 12.7422 64.8086 12.2502 64.6996 11.793C64.5143 10.9258 64.085 10.1485 63.4572 9.54196C63.0235 9.1241 62.5157 8.81295 61.9043 8.59166C61.8596 8.57482 61.8291 8.53213 61.828 8.48271C61.828 8.38947 61.8247 8.29624 61.8204 8.20301C61.7997 7.7537 61.731 7.31225 61.6155 6.8899C61.5643 6.68658 61.5065 6.48551 61.4433 6.29006C61.2864 5.80481 61.0455 5.3364 60.7262 4.89607C60.6685 4.81744 60.6074 4.73881 60.5431 4.66468C60.2118 4.28052 59.8108 3.95926 59.3509 3.70764C59.3171 3.68855 59.2942 3.65373 59.291 3.61441C59.2877 3.5751 59.304 3.53691 59.3335 3.51219L60.8777 2.253C60.8777 2.253 60.8853 2.24626 60.8875 2.24289C60.8777 2.23615 60.8548 2.22828 60.8188 2.23502L56.1872 3.11231C56.1872 3.11231 56.1818 3.11231 56.1785 3.11343L56.1425 3.1168C56.1284 3.11792 56.1153 3.11905 56.1011 3.12129C56.0717 3.12466 56.0434 3.12915 56.014 3.13252C55.4309 3.21902 54.8718 3.39313 54.3509 3.65148C53.4551 4.09405 52.7587 4.78824 52.337 5.6599C52.167 6.01037 52.0318 6.39565 51.9349 6.8034C51.9229 6.85507 51.8771 6.89214 51.8259 6.89214C51.7747 6.89214 51.7289 6.8562 51.7158 6.80453C51.6646 6.60234 51.6014 6.3979 51.5262 6.19908C51.5087 6.1519 51.4891 6.10472 51.4695 6.05755C51.0445 5.05895 50.2958 4.26704 49.3619 3.82559C49.3248 3.80874 49.2997 3.77279 49.2965 3.73123C49.2921 3.68967 49.3095 3.64923 49.3422 3.62452L50.7742 2.54842C50.7612 2.54617 50.7437 2.54505 50.7208 2.54954L45.856 3.47176C45.8407 3.47512 45.8255 3.47962 45.8124 3.48636C45.8037 3.49085 45.7939 3.49534 45.7841 3.49759C45.201 3.63238 44.6725 3.86827 44.2115 4.19964C43.4476 4.7478 42.8721 5.515 42.5474 6.41812C42.3447 6.97976 42.2237 7.58521 42.1878 8.21537L42.1714 8.49057C42.1703 8.51641 42.1605 8.53999 42.1442 8.55909C42.1311 8.57482 42.1191 8.58829 42.1082 8.60177C41.9175 8.82194 41.7399 9.04322 41.5818 9.25889C41.3083 9.62284 41.0326 9.98229 40.7623 10.3271L39.8545 11.483C39.7346 11.6402 39.5821 11.8177 39.3968 12.0143C38.9892 12.4479 38.6209 12.9185 38.3005 13.4128C37.894 14.0407 37.5921 14.7203 37.4025 15.4324C37.118 16.4973 37.1736 17.6105 37.5638 18.6506C37.7686 19.2224 38.0673 19.7312 38.4498 20.1637C38.4792 20.1963 38.4868 20.2434 38.4716 20.285C38.1457 21.1544 38.0553 22.1283 38.2024 23.1797C38.3168 24.121 38.72 24.9702 39.3674 25.6363C39.7063 25.9857 40.0834 26.2822 40.4909 26.5181C40.8451 26.7236 41.1819 26.8753 41.5197 26.9809C41.8379 27.0831 42.2172 27.1909 42.7152 27.1909H46.1034C46.1361 27.1909 46.1677 27.2055 46.1895 27.2314C46.2113 27.2572 46.22 27.292 46.2156 27.3257L45.4397 32.4198C45.431 32.4771 45.383 32.5187 45.3274 32.5187H43.0269C42.7327 32.5187 42.494 32.7972 42.494 33.1398C42.494 33.4824 42.7327 33.761 43.0269 33.761H45.8713C46.1295 33.761 46.3508 33.5453 46.3954 33.2488L47.3032 27.2898C47.312 27.2325 47.3599 27.1909 47.4155 27.1909L47.4177 27.1966Z" fill="#0021C4"/>
<path d="M47.1654 4.99902C45.6353 4.99902 44.3755 6.39863 44.2109 8.197H50.1187C49.9541 6.39863 48.6954 4.99902 47.1643 4.99902H47.1654Z" fill="white"/>
<path d="M47.1653 12.1937C48.5406 12.1937 49.6936 11.0626 50.0337 9.5293H44.2959C44.6359 11.0637 45.79 12.1937 47.1642 12.1937H47.1653Z" fill="white"/>
<path d="M50.1188 8.19678H44.211C44.199 8.3282 44.1914 8.46075 44.1914 8.59667C44.1914 8.92017 44.2295 9.23132 44.296 9.52899H50.0338C50.1003 9.23132 50.1384 8.91905 50.1384 8.59667C50.1384 8.46187 50.1308 8.3282 50.1188 8.19678Z" fill="black"/>
<path d="M56.7318 4.99902C55.2017 4.99902 53.9419 6.39863 53.7773 8.197H59.6851C59.5206 6.39863 58.2618 4.99902 56.7307 4.99902H56.7318Z" fill="white"/>
<path d="M56.7317 12.1937C58.107 12.1937 59.26 11.0626 59.6001 9.5293H53.8623C54.2023 11.0637 55.3564 12.1937 56.7306 12.1937H56.7317Z" fill="white"/>
<path d="M59.6852 8.19678H53.7774C53.7654 8.3282 53.7578 8.46075 53.7578 8.59667C53.7578 8.92017 53.796 9.23132 53.8624 9.52899H59.6002C59.6667 9.23132 59.7048 8.91905 59.7048 8.59667C59.7048 8.46187 59.6972 8.3282 59.6852 8.19678Z" fill="black"/>
<path d="M68.4861 32.787H65.0456C65.0217 32.787 64.9988 32.7724 64.9879 32.7499L64.7492 32.2591C64.7274 32.2152 64.759 32.1636 64.807 32.1636H68.4861C68.6529 32.1636 68.7891 32.3029 68.7891 32.4758C68.7891 32.6477 68.6539 32.7881 68.4861 32.7881V32.787Z" fill="black"/>
<path d="M69.6972 31.2264H64.5163C64.4924 31.2264 64.4695 31.2118 64.4586 31.1894L64.2199 30.6985C64.1981 30.6547 64.2297 30.603 64.2777 30.603H69.6961C69.8629 30.603 69.9991 30.7423 69.9991 30.9153C69.9991 31.0872 69.8639 31.2276 69.6961 31.2276L69.6972 31.2264Z" fill="black"/>
</g>
<defs>
<clipPath id="clip0_1930_367">
<rect width="31" height="34" fill="white"/>
</clipPath>
<clipPath id="clip1_1930_367">
<rect width="33" height="32" fill="white" transform="translate(37 2)"/>
</clipPath>
</defs>
</svg>
