<svg width="46" height="46" viewBox="0 0 46 46" fill="none" xmlns="http://www.w3.org/2000/svg">
<circle cx="23" cy="23" r="22.5" fill="white" stroke="#E6E7E8"/>
<g clip-path="url(#clip0_1801_3947)">
<path fill-rule="evenodd" clip-rule="evenodd" d="M35 23.2726C35 22.4214 34.9216 21.604 34.7774 20.8184H23.2451V25.4601H29.8355C29.5517 26.9602 28.6888 28.2309 27.3922 29.0821V32.0926H31.3501C33.6653 30.0035 35.0011 26.9274 35.0011 23.2726H35Z" fill="#3E82F1"/>
<path fill-rule="evenodd" clip-rule="evenodd" d="M23.2455 35.0001C26.5516 35.0001 29.3237 33.925 31.3493 32.0925L27.3914 29.0821C26.2944 29.8022 24.8928 30.2272 23.2443 30.2272C20.0547 30.2272 17.3554 28.1166 16.3921 25.2803H12.3027V28.3891C14.318 32.3107 18.4582 35.0001 23.2455 35.0001Z" fill="#32A753"/>
<path fill-rule="evenodd" clip-rule="evenodd" d="M16.3929 25.28C16.1484 24.5599 16.0088 23.7912 16.0088 22.9998C16.0088 22.2085 16.1484 21.4398 16.3929 20.7197V17.6108H12.3024C11.473 19.2308 11 21.0633 11 22.9998C11 24.9363 11.473 26.7688 12.3024 28.3888L16.3929 25.28Z" fill="#F9BB00"/>
<path fill-rule="evenodd" clip-rule="evenodd" d="M23.2455 15.7729C25.0428 15.7729 26.6578 16.3788 27.9267 17.5669L31.4393 14.1246C29.3179 12.1893 26.5459 11 23.2455 11C18.4582 11 14.318 13.6894 12.3027 17.611L16.3933 20.7198C17.3565 17.8835 20.0559 15.7729 23.2455 15.7729Z" fill="#E74133"/>
</g>
<defs>
<clipPath id="clip0_1801_3947">
<rect width="24" height="24" fill="white" transform="translate(11 11)"/>
</clipPath>
</defs>
</svg>
