<svg width="10" height="11" viewBox="0 0 10 11" fill="none" xmlns="http://www.w3.org/2000/svg">
<path fill-rule="evenodd" clip-rule="evenodd" d="M9.99963 6.59264C9.99945 6.22858 9.99928 5.86451 9.99928 5.50044C9.99928 5.14464 9.99942 4.78886 9.99956 4.43309C9.99989 3.57941 10.0002 2.72579 9.99864 1.87202C9.99735 1.08629 9.41777 0.50221 8.63461 0.501568C6.21159 0.49932 3.78857 0.499641 1.36556 0.501568C0.582394 0.50221 0.00152522 1.08597 0.00120412 1.87106C-0.000401374 4.2899 -0.000401374 6.70906 0.00120412 9.1279C0.00152522 9.91749 0.584642 10.4984 1.37712 10.4987C3.7921 10.5003 6.20709 10.4996 8.62208 10.4977C8.73704 10.4977 8.8552 10.4871 8.96662 10.4605C9.58731 10.3118 9.99735 9.78808 9.99864 9.14075C10.0004 8.29138 10 7.44201 9.99963 6.59264ZM9.22545 7.35006C9.22626 7.33191 9.22707 7.31681 9.22777 7.30368C9.22901 7.28036 9.22992 7.26325 9.22992 7.24626C9.22992 6.73382 9.22998 6.22134 9.23003 5.70886C9.23016 4.42723 9.23029 3.14553 9.2296 1.86399C9.2296 1.50982 8.98717 1.2706 8.63043 1.2706C6.21159 1.26996 3.79275 1.26996 1.3739 1.2706C1.01074 1.2706 0.770237 1.51014 0.770237 1.8717C0.769595 3.806 0.769916 5.7403 0.770237 7.67461C0.770237 7.6934 0.772681 7.71219 0.775538 7.73416C0.777075 7.74598 0.778731 7.75871 0.780191 7.77286C0.792467 7.76279 0.802818 7.75442 0.811978 7.74702C0.825581 7.73603 0.836556 7.72717 0.847301 7.71796C1.01238 7.57869 1.1775 7.43945 1.34263 7.3002C1.79582 6.91804 2.24908 6.53582 2.70165 6.15292C3.19229 5.73774 3.74972 5.75829 4.2044 6.21136C4.40566 6.41195 4.60648 6.61289 4.80728 6.81382C4.98577 6.99243 5.16425 7.17103 5.34301 7.34933C5.48655 7.49287 5.58994 7.50154 5.75466 7.38273C5.93782 7.25046 6.12068 7.11784 6.30354 6.98523C6.50954 6.83583 6.71552 6.68644 6.92186 6.53759C7.35727 6.22356 7.82736 6.2364 8.24832 6.57195C8.5674 6.82619 8.88648 7.08043 9.22545 7.35006ZM6.03513 9.73039C5.68946 9.73034 5.34379 9.73029 4.99815 9.73029V9.72964H1.40601C0.996291 9.72964 0.783402 9.50102 0.764458 9.08873C0.754503 8.87167 0.821934 8.73424 0.990833 8.59648C1.53504 8.15218 2.07266 7.69976 2.61031 7.24732C2.81403 7.07589 3.01775 6.90446 3.22183 6.73347C3.39073 6.59186 3.50504 6.59764 3.65885 6.75434C4.03742 7.14062 4.41568 7.52658 4.79393 7.91286C5.22196 8.3502 5.76558 8.3897 6.25076 8.01594C6.45165 7.86127 6.65197 7.70595 6.85229 7.55064C7.02211 7.41896 7.19193 7.2873 7.36209 7.15603C7.50723 7.04365 7.60933 7.04333 7.7503 7.15603C7.78486 7.18368 7.81942 7.21133 7.85398 7.23898C8.29146 7.58892 8.72898 7.93889 9.16346 8.29272C9.19942 8.32227 9.22607 8.38424 9.22736 8.43176C9.23298 8.63494 9.23171 8.83837 9.23044 9.04162C9.23026 9.0706 9.23008 9.09957 9.22992 9.12855C9.22832 9.49107 8.99006 9.72997 8.62626 9.72997C7.76263 9.73065 6.89885 9.73052 6.03513 9.73039ZM7.94974 3.97389C7.95648 3.19811 7.31942 2.5527 6.54461 2.55013V2.54981C5.76723 2.54724 5.12727 3.18431 5.12695 3.96104C5.12663 4.73682 5.76594 5.3742 6.54396 5.37324C7.30754 5.3726 7.94332 4.74003 7.94974 3.97389ZM6.53337 3.31981C6.88305 3.31563 7.17749 3.60655 7.18038 3.95912C7.18327 4.30847 6.88915 4.60292 6.53786 4.6026C6.19043 4.60228 5.90401 4.31939 5.89759 3.97004C5.89117 3.621 6.18177 3.32366 6.53337 3.31981Z" fill="white"/>
</svg>
