<svg width="91" height="91" viewBox="0 0 91 91" fill="none" xmlns="http://www.w3.org/2000/svg">
<path d="M81.4516 67.7656C81.2786 67.7656 81.1015 67.7109 80.9497 67.6016C80.5744 67.324 80.4985 66.7983 80.7726 66.4241C84.9645 60.7848 80.9244 54.624 80.7515 54.3633C80.4942 53.9764 80.5955 53.4549 80.9834 53.1984C81.3714 52.9419 81.8944 53.0428 82.1516 53.4255C82.2022 53.497 87.0394 60.8184 82.1305 67.4249C81.9661 67.6478 81.7088 67.7656 81.4516 67.7656V67.7656Z" fill="black"/>
<path d="M88.3635 64.6962C88.2159 64.6962 88.0683 64.6584 87.9291 64.5743C87.5285 64.3346 87.402 63.8173 87.6381 63.422C89.6076 60.1503 87.7646 57.5682 87.6845 57.4589C87.4104 57.0846 87.4905 56.559 87.8616 56.2856C88.2328 56.0123 88.7599 56.0838 89.0383 56.4538C89.1479 56.5968 91.6529 60.0199 89.0846 64.2883C88.9244 64.549 88.646 64.6962 88.3593 64.6962H88.3635Z" fill="black"/>
<path d="M72.5324 48.5562L71.9125 47.9801C70.1286 46.4577 68.1634 45.3602 66.0716 44.7126C65.8017 44.6284 65.5318 44.5527 65.2535 44.4771C66.0168 43.514 66.7168 42.4837 67.3494 41.3988C69.2683 38.1144 70.3985 34.254 70.7106 29.9267C70.9973 26.2681 70.6431 22.7231 69.6563 19.3841C68.5682 15.7213 66.6072 12.336 63.828 9.32083L63.7732 9.26195C62.5839 7.99616 61.2766 6.86494 59.8554 5.88931C58.6239 5.04404 57.325 4.30391 56.0008 3.67733L55.8026 3.58481C53.0234 2.34425 50.084 1.52842 47.0687 1.16256C44.9474 0.906039 42.8008 0.695774 40.7639 0.548589C37.7823 0.313093 34.7754 0.325709 31.8233 0.594847C28.6731 0.880807 25.5354 1.53683 22.4906 2.5419C17.0292 4.2955 12.5843 7.29808 9.28216 11.4655C5.77763 15.8895 3.99795 21.2554 3.99795 27.4162C3.99795 29.9688 4.25942 32.4752 4.77392 34.8638C5.44447 37.9757 6.7729 40.9068 8.7297 43.5729C9.05864 44.0397 9.40446 44.4939 9.75871 44.9354C9.54363 45.0111 9.33277 45.091 9.1219 45.1751C6.11922 46.3736 3.66479 48.5394 2.02006 51.4494C0.678977 53.8296 0 56.3402 0 58.9096C0 63.0855 1.79233 66.9964 5.04383 69.9275L5.41494 70.2471C7.96638 72.3455 11.1124 73.5693 14.5158 73.7795C15.4225 73.8342 16.3123 73.8636 17.1726 73.8636C17.6913 73.8636 18.1974 73.8552 18.6951 73.8342C19.1421 73.8258 19.5849 73.8048 20.0066 73.7669H60.5259C61.4242 73.7669 62.352 73.6996 63.3768 73.5608C64.5618 73.401 65.7722 73.1151 66.953 72.7198C69.1249 72.0007 71.0226 70.8442 72.5957 69.2714L73.1524 68.6743C74.4639 67.152 75.4297 65.3143 76.0327 63.1738C76.4587 61.6431 76.678 60.1123 76.678 58.6194C76.678 54.7968 75.2062 51.2181 72.5366 48.5478L72.5324 48.5562Z" fill="#FFBC00"/>
<path d="M21.5801 24.0938C17.8773 24.0938 14.7987 27.2814 14.1113 31.5035C14.959 29.8172 16.4856 28.6901 18.24 28.6901C20.9053 28.6901 23.0688 31.3016 23.0688 34.5187C23.0688 37.7357 20.9053 40.3472 18.24 40.3472C17.5146 40.3472 16.8272 40.1496 16.2115 39.8005C17.5906 41.4574 19.4883 42.4793 21.5843 42.4793C25.7889 42.4793 29.2006 38.3623 29.2006 33.2865C29.2006 28.2107 25.7889 24.0938 21.5843 24.0938H21.5801Z" fill="white"/>
<path d="M23.064 34.519C23.064 31.3019 20.9006 28.6904 18.2353 28.6904C16.4851 28.6904 14.9543 29.8217 14.1066 31.5038C14.0138 32.0799 13.959 32.677 13.959 33.2868C13.959 35.831 14.8151 38.1355 16.2026 39.8008C16.8183 40.1456 17.5057 40.3475 18.2311 40.3475C20.8964 40.3475 23.0598 37.736 23.0598 34.519H23.064Z" fill="black"/>
<path d="M44.6307 24.0938C41.0123 24.0938 37.9928 27.1384 37.2168 31.2175C38.0855 29.691 39.5447 28.6901 41.1937 28.6901C43.859 28.6901 46.0224 31.3016 46.0224 34.5187C46.0224 37.7357 43.859 40.3472 41.1937 40.3472C40.54 40.3472 39.9201 40.1874 39.3549 39.9056C40.7255 41.4952 42.5811 42.4793 44.6349 42.4793C48.8395 42.4793 52.2513 38.3623 52.2513 33.2865C52.2513 28.2107 48.8395 24.0938 44.6349 24.0938H44.6307Z" fill="white"/>
<path d="M47.008 34.8285C47.008 31.6115 44.8446 29 42.1793 29C40.5261 29 39.0712 30.0009 38.2024 31.5274C38.0759 32.1918 38 32.8857 38 33.5964C38 36.1995 38.8983 38.5418 40.3364 40.2155C40.9057 40.4973 41.5256 40.6571 42.1751 40.6571C44.8404 40.6571 47.0038 38.0456 47.0038 34.8285H47.008Z" fill="black"/>
<path d="M28.0001 45.8432C28.0001 45.6703 28.0547 45.4931 28.1641 45.3413C28.4416 44.966 28.9673 44.8901 29.3415 45.1642C34.9808 49.3561 41.1416 45.316 41.4023 45.1431C41.7892 44.8858 42.3107 44.9871 42.5672 45.375C42.8237 45.763 42.7228 46.286 42.3401 46.5432C42.2686 46.5938 34.9472 51.431 28.3407 46.5221C28.1178 46.3577 28.0001 46.1004 28.0001 45.8432V45.8432Z" fill="black"/>
<path d="M38 91L56.1865 59.5H19.8135L38 91Z" fill="#FFBC00"/>
</svg>
