<svg width="124" height="46" viewBox="0 0 124 46" fill="none" xmlns="http://www.w3.org/2000/svg">
<path d="M40.6402 21.8002C48.6802 21.8002 51.1402 8.00019 43.1002 8.00019H26.3002C18.2602 8.00019 15.8002 21.8002 23.8402 21.8002H40.6402ZM44.1802 27.2002H18.5002C2.78023 27.2002 7.10023 2.60019 22.8202 2.60019H60.8002C61.7002 2.60019 61.4602 3.80019 60.5602 3.80019H58.4602C56.9602 3.80019 55.8802 5.30019 56.6602 6.50019C61.2202 12.9802 56.2402 27.2002 44.1802 27.2002ZM24.2002 38.6002L25.8802 29.0002H36.0802L34.4002 38.6002H58.0402C58.9402 38.6002 58.7602 39.8002 57.8602 39.8002H56.1202C53.8402 39.8002 52.7002 44.0002 48.7402 44.0002H0.740234L1.70023 38.6002H24.2002Z" fill="#0055FF"/>
<path d="M101.48 23.6002H92.4802L91.7002 11.0002L86.1802 23.6002H76.5802L75.5002 11.0002L70.2802 23.6002H61.2802L69.5602 4.64019C70.7002 2.06019 73.1602 0.800194 75.8002 0.800194H82.7002L83.4202 12.2602L86.5402 4.64019C87.6202 2.06019 90.0802 0.800194 92.7202 0.800194H103.34C104.24 0.800194 104.06 2.00019 103.16 2.00019H102.02C100.82 2.00019 99.8002 3.50019 99.9202 4.64019L101.48 23.6002ZM117.26 9.20019H123.86L122.9 14.6002H116.3L115.04 21.8002C114.74 23.4202 113.12 24.8002 111.5 24.8002H104.3L108.62 0.200195H122.36C123.26 0.200195 123.02 1.40019 122.12 1.40019H120.98C119.66 1.40019 118.4 2.48019 118.16 3.80019L117.26 9.20019ZM111.32 42.8002C111.02 44.4202 109.4 45.8002 107.78 45.8002H100.58L102.68 33.8002H66.6802L67.6402 28.4002H117.38C118.28 28.4002 118.1 29.6002 117.2 29.6002H116.06C114.74 29.6002 113.42 30.6802 113.24 32.0002L111.32 42.8002Z" fill="#0055FF"/>
</svg>
