<svg width="8" height="12" viewBox="0 0 8 12" fill="none" xmlns="http://www.w3.org/2000/svg">
<path d="M4.34048 9.03291C4.3415 9.83222 4.34422 10.6164 4.33998 11.4008C4.33943 11.4839 4.31198 11.5771 4.26799 11.6475C4.20884 11.7416 4.10294 11.7631 3.99612 11.7308C3.89026 11.6989 3.82237 11.6262 3.80638 11.5146C3.79921 11.4646 3.79998 11.413 3.79978 11.3624C3.79941 10.6372 3.79905 9.91214 3.79964 9.18702C3.79968 9.14044 3.80596 9.09434 3.81033 9.03431C3.74887 9.03244 3.70421 9.02959 3.65907 9.02963C2.64559 9.02926 1.63212 9.02889 0.618644 9.02852C0.357652 9.0285 0.259526 8.93518 0.272945 8.67513C0.348829 7.19724 1.02803 6.09293 2.32973 5.38091C2.41116 5.33643 2.44337 5.2927 2.44273 5.19786C2.43823 4.52774 2.44022 3.85785 2.44029 3.18796C2.44033 3.14618 2.4382 3.10465 2.43634 3.03214C2.3242 3.03967 2.21806 3.05705 2.1129 3.05233C1.54316 3.02663 1.09647 2.56311 1.08493 1.99216C1.07339 1.42312 1.50357 0.943044 2.07121 0.892157C2.11348 0.888281 2.15598 0.885605 2.19823 0.885571C3.44917 0.885505 4.70011 0.881598 5.95105 0.888256C6.57051 0.89159 7.0345 1.34404 7.05298 1.94069C7.07122 2.52988 6.61774 3.02511 6.02826 3.05368C5.92309 3.05857 5.81674 3.04257 5.7063 3.03594C5.70241 3.09549 5.6983 3.12791 5.69827 3.16056C5.69819 3.84341 5.6998 4.52602 5.69683 5.20888C5.69653 5.29124 5.72002 5.33299 5.79586 5.37471C7.08656 6.08052 7.7738 7.1729 7.8684 8.63817C7.88784 8.94261 7.79412 9.03104 7.48415 9.03106C6.48772 9.03091 5.49106 9.03053 4.49463 9.03039C4.44853 9.03042 4.40267 9.03262 4.34048 9.03387L4.34048 9.03291Z" fill="#6E2EF6"/>
</svg>
