<svg width="14" height="14" viewBox="0 0 14 14" fill="none" xmlns="http://www.w3.org/2000/svg">
<path fill-rule="evenodd" clip-rule="evenodd" d="M6.43263 1.25502C7.4384 -0.0850031 9.34005 -0.356278 10.6809 0.649326L10.3809 1.04932L10.681 0.649433C12.0212 1.65533 12.2914 3.55796 11.2858 4.8978L10.8859 4.59766L10.486 4.29752C11.1603 3.39903 10.9789 2.12332 10.0807 1.44922C9.18153 0.774948 7.90662 0.957035 7.23242 1.8553L7.2324 1.85533L6.83253 1.55516L6.43263 1.25502ZM6.44525 2.90393L6.55702 2.75503L7.05006 2.09822L7.18513 1.9183L7.22037 1.87135L7.22936 1.85937L7.23163 1.85635L7.2322 1.85559L7.23235 1.8554C7.23238 1.85535 7.2324 1.85533 6.83253 1.55516L6.43261 1.25505L6.43246 1.25524L6.43189 1.256L6.42962 1.25903L6.42063 1.27101L6.38539 1.31796L6.25032 1.49788L5.75728 2.15469L4.16276 4.27885L0.805962 8.75086L0.8059 8.75094C-0.0337319 9.87013 -0.0445561 11.1133 0.132258 12.0323C0.221006 12.4936 0.35891 12.8864 0.474313 13.1639C0.532237 13.3031 0.585102 13.4148 0.624357 13.4932C0.644003 13.5325 0.660297 13.5635 0.672184 13.5856L0.686598 13.612L0.691094 13.62L0.692623 13.6227L0.693201 13.6237L0.693444 13.6241C0.693552 13.6243 0.693655 13.6245 1.12753 13.376L0.693655 13.6245C0.762946 13.7455 0.8796 13.832 1.01547 13.8633L1.12753 13.376C1.01547 13.8633 1.01567 13.8633 1.01587 13.8634L1.01634 13.8635L1.01746 13.8637L1.02046 13.8644L1.02941 13.8664L1.0588 13.8725C1.08339 13.8775 1.11785 13.8842 1.16118 13.8917C1.24777 13.9066 1.3703 13.9252 1.52079 13.9407C1.8206 13.9717 2.23759 13.9918 2.70585 13.9465C3.63703 13.8565 4.82888 13.5003 5.65902 12.3937C6.37364 11.442 7.78033 9.56801 9.00835 7.93198L10.1405 6.42364C10.1642 6.40231 10.1861 6.3784 10.206 6.35196C10.2258 6.32552 10.2426 6.29775 10.2565 6.26907L10.6076 5.80137L11.1026 5.14182L11.2383 4.96107L11.2737 4.9139L11.2827 4.90186L11.285 4.89882L11.2856 4.89806L11.2857 4.89787L10.8859 4.59766C10.486 4.29752 10.4859 4.29754 10.4859 4.29758L10.4858 4.29777L10.4852 4.29854L10.4829 4.30158L10.4739 4.31362L10.4385 4.36079L10.3028 4.54153L9.80778 5.20108L9.69888 5.34616L6.44525 2.90393ZM5.84491 3.70367L4.9625 4.87918L1.60582 9.35105L1.60575 9.35113C0.996281 10.1636 0.967945 11.0829 1.11425 11.8434C1.18707 12.2219 1.3013 12.5482 1.39764 12.7798C1.42037 12.8345 1.44198 12.8836 1.46161 12.9265C1.50921 12.9331 1.56352 12.9398 1.62369 12.946C1.87538 12.9721 2.22351 12.9885 2.60962 12.9511C3.38713 12.876 4.26103 12.5909 4.85921 11.7935L4.85936 11.7933C5.57391 10.8416 6.98055 8.96772 8.20858 7.33167L9.09858 6.14593L5.84491 3.70367ZM1.23852 12.8885C1.23838 12.8884 1.2384 12.8884 1.23857 12.8885L1.23852 12.8885ZM7.61212 13.2565C7.61212 12.9804 7.83598 12.7565 8.11212 12.7565H13.4263C13.7024 12.7565 13.9263 12.9804 13.9263 13.2565C13.9263 13.5327 13.7024 13.7565 13.4263 13.7565H8.11212C7.83598 13.7565 7.61212 13.5327 7.61212 13.2565Z" fill="white"/>
</svg>
